<svg width="832" height="278" viewBox="0 0 832 278" fill="none" xmlns="http://www.w3.org/2000/svg">
<path d="M336.77 135.096V175.631H319.952V138.554C319.952 132.988 316.122 128.29 309.813 128.29C303.504 128.29 299.794 132.988 299.794 138.554V175.631H282.976V138.554C282.976 132.988 279.146 128.29 272.837 128.29C266.898 128.29 262.818 132.988 262.818 138.554V175.631H246V113.34H262.318V116.798C266.148 113.71 271.097 111.981 276.907 111.981C283.706 111.981 289.515 114.449 293.605 118.776C298.054 114.569 304.244 111.981 311.533 111.981C326.251 111.981 336.76 121.745 336.76 135.096H336.77Z" fill="#383846"/>
<path d="M403.782 136.216V175.641H387.334V171.813C383.505 175.401 378.555 177 371.626 177C358.767 177 349.988 168.965 349.988 157.592C349.988 144.99 359.387 139.304 371.626 138.314L387.334 136.955V135.846C387.334 131.149 382.885 127.561 377.315 127.561C372.246 127.561 368.416 130.279 367.546 134.107H351.468C352.338 121.375 362.847 111.981 377.315 111.981C393.024 111.981 403.782 122.234 403.782 136.206V136.216ZM387.334 153.765V149.317L374.346 150.427C368.906 150.916 366.677 153.395 366.677 156.853C366.677 160.31 369.766 163.159 375.456 163.159C382.755 163.159 387.324 159.571 387.324 153.765H387.334Z" fill="#383846"/>
<path d="M456.556 112.98V129.54H447.407C439.988 129.54 434.799 135.226 434.799 142.641V175.271H417.981V112.98H434.429V119.156C437.889 114.579 443.578 112.98 449.267 112.98H456.566H456.556Z" fill="#383846"/>
<path d="M505.361 142.552L530.088 175.181H509.561L487.793 145.889V175.181H470.975V81H487.793V138.964L509.561 112.88H530.338L505.361 142.542V142.552Z" fill="#383846"/>
<path d="M596.801 150.906H552.156C554.256 157.082 560.075 161.29 567.494 161.29C573.673 161.29 578.503 158.202 581.343 153.625L594.941 161.909C589.372 171.054 579.483 176.99 567.244 176.99C548.446 176.99 534.968 162.899 534.968 144.61C534.968 126.322 547.826 111.981 566.254 111.981C584.682 111.981 597.421 125.822 597.421 144.36C597.421 146.589 597.171 148.808 596.801 150.906ZM551.796 138.054H580.613C579.003 131.259 573.563 127.551 566.394 127.551C558.855 127.551 553.536 131.259 551.806 138.054H551.796Z" fill="#383846"/>
<path d="M650.535 112.98V129.54H641.386C633.967 129.54 628.777 135.226 628.777 142.641V175.271H611.959V112.98H628.407V119.156C631.867 114.579 637.556 112.98 643.246 112.98H650.545H650.535Z" fill="#383846"/>
<path d="M660.714 154.954C666.893 154.954 671.352 159.651 671.352 165.707C671.352 171.763 666.903 176.34 660.714 176.34C654.524 176.34 649.955 171.643 649.955 165.707C649.955 159.771 654.534 154.954 660.714 154.954Z" fill="#383846"/>
<path d="M694.59 81.9994C700.769 81.9994 705.229 86.6965 705.229 92.6327C705.229 98.569 700.779 103.266 694.59 103.266C688.401 103.266 683.951 98.569 683.951 92.6327C683.951 86.6965 688.401 81.9994 694.59 81.9994ZM702.999 174.941H686.181V112.65H702.999V174.941Z" fill="#383846"/>
<path d="M750.474 111.981C769.271 111.981 783 126.192 783 144.61C783 163.029 769.271 176.99 750.474 176.99C731.676 176.99 717.947 162.409 717.947 144.61C717.947 126.811 731.676 111.981 750.474 111.981ZM750.474 160.56C759.623 160.56 766.302 153.515 766.302 144.62C766.302 135.726 759.623 128.43 750.474 128.43C741.325 128.43 734.645 135.476 734.645 144.62C734.645 153.765 741.195 160.56 750.474 160.56Z" fill="#383846"/>
<path d="M154.145 101.017L154.444 101.666C161.64 116.173 168.448 130.571 170.777 146.825C173.803 167.898 166.875 195.976 141.714 197.911C105.495 200.705 95.8802 168.726 104.012 138.913C108.292 123.208 114.482 110.835 125.232 98.6524C125.899 97.8941 128.277 95.1303 128.586 94.5017C129.153 93.3443 124.744 90.5804 123.53 90.1115C110.223 85.0128 97.3532 103.302 91.8492 112.99C76.9196 139.252 70.5098 169.185 69.9126 199.288C69.8629 201.713 70.1714 204.716 69.9126 207.041C69.5344 210.443 66.5485 209.815 63.7815 209.675C60.1586 209.495 54.6148 209.007 51.0715 208.398C49.6582 208.158 49.2899 206.801 49.1705 205.544C48.7425 200.675 49.2302 194.928 49.4392 190.039C50.7629 159.836 59.6311 124.235 75.5461 98.413C85.8375 81.7202 107.804 65.2568 128.347 71.2635C135.533 73.3688 140.241 77.8588 144.76 83.606C151.02 82.0195 157.46 80.3632 163.939 80.3931C190.564 80.5228 209.146 90.1414 215.994 117.141C224.265 149.769 205.453 187.754 187.14 214.125C184.512 217.907 184.134 217.568 180.212 215.352C177.346 213.726 171.892 210.393 169.423 208.398C167.463 206.811 167.851 205.884 168.946 203.918C171.653 199.069 175.674 194.07 178.64 189.131C190.006 170.203 201.064 145.039 195.202 122.589C191.32 107.752 180.989 99.6702 165.691 98.8819C161.829 98.6824 157.529 99.0515 154.125 100.997L154.145 101.017ZM139.594 111.913C139.266 111.175 138.589 112.332 138.3 112.681C130.606 121.871 122.813 138.793 122.116 150.796C121.569 160.325 124.037 181.189 137.653 179.602C151.269 178.016 151.219 156.204 150.055 146.576C148.602 134.582 144.411 122.898 139.594 111.913Z" fill="#62EE62"/>
</svg>
