<svg width="40" height="35" viewBox="0 0 40 35" fill="none" xmlns="http://www.w3.org/2000/svg">
<path d="M2.99674 35L0 30.0373C3.30076 27.8607 5.7329 25.51 7.29642 22.9851C8.9468 20.4602 9.77199 17.3259 9.77199 13.5821L8.33876 4.96269L13.6808 11.6231C12.899 12.4067 12.1173 12.9726 11.3355 13.3209C10.5537 13.6692 9.68512 13.8433 8.72964 13.8433C6.90554 13.8433 5.29859 13.2774 3.90879 12.1455C2.519 11.0137 1.8241 9.40298 1.8241 7.31343C1.8241 5.04975 2.47557 3.26493 3.7785 1.95896C5.08143 0.652991 6.73181 0 8.72964 0C11.2486 0 13.2465 1.04478 14.7231 3.13433C16.1998 5.13682 16.9381 8.05348 16.9381 11.8843C16.9381 17.1082 15.722 21.592 13.2899 25.3358C10.9446 29.1667 7.51357 32.3881 2.99674 35ZM26.0586 35L23.0619 30.0373C26.3627 27.8607 28.7948 25.51 30.3583 22.9851C32.0087 20.4602 32.8339 17.3259 32.8339 13.5821L31.4007 4.96269L36.7427 11.6231C35.9609 12.4067 35.1792 12.9726 34.3974 13.3209C33.6156 13.6692 32.747 13.8433 31.7915 13.8433C29.9674 13.8433 28.3605 13.2774 26.9707 12.1455C25.5809 11.0137 24.886 9.40298 24.886 7.31343C24.886 5.04975 25.5375 3.26493 26.8404 1.95896C28.1433 0.652991 29.7937 0 31.7915 0C34.3105 0 36.3084 1.04478 37.785 3.13433C39.2617 5.13682 40 8.05348 40 11.8843C40 17.1082 38.7839 21.592 36.3518 25.3358C34.0065 29.1667 30.5755 32.3881 26.0586 35Z" fill="#88C0B1"/>
</svg>
